<svg width="348" height="272" viewBox="0 0 348 272" fill="none" xmlns="http://www.w3.org/2000/svg">
<g clip-path="url(#clip0_3996_6110)">
<path d="M289.386 117.304C289.386 117.304 281.204 121.864 283.559 127.056C285.914 132.248 319.357 128 319.357 128C319.357 128 317.002 120.92 312.762 119.504C308.523 118.088 289.386 117.304 289.386 117.304Z" fill="#787B81"/>
<path d="M286.196 118.519C287.841 117.448 289.669 116.691 291.588 116.285C297.989 114.731 304.691 114.94 310.983 116.892L310.868 116.798C313.549 118.216 315.902 120.182 317.776 122.569L286.196 118.519Z" fill="#CCCCCC"/>
<path d="M322.428 140.848C322.315 142.542 322.202 144.235 322.089 145.926C321.934 149.469 321.548 152.998 320.935 156.49C320.36 159.411 319.446 162.31 317.812 164.797C316.177 167.28 313.752 169.333 310.878 170.088C309.114 170.512 307.28 170.552 305.499 170.206C302.141 168.295 299.866 170.739 303.22 173.227C303.98 173.791 304.771 174.312 305.589 174.789L307.11 198.328L278.849 192.192L284.365 160.879C283.52 160.11 282.747 159.265 282.057 158.354C278.896 154.149 277.808 148.669 278.015 143.411C278.227 138.148 279.626 133.017 281.016 127.943C281.37 126.567 281.798 125.21 282.297 123.879C282.914 124.134 283.54 124.365 284.176 124.559C288.241 125.796 292.56 125.895 296.809 125.89C304.369 125.885 311.919 125.589 319.46 125.003C321.193 127.861 322.246 131.082 322.536 134.414C322.658 136.558 322.622 138.709 322.428 140.848Z" fill="#CCCCCC"/>
<path d="M201.555 204.745L245.063 208.615L245.529 208.657V22.623C245.374 22.5145 245.218 22.4059 245.063 22.2973C235.995 15.9417 226.187 10.7204 215.855 6.74963L213.632 37.4769L213.429 40.29L211.229 70.7624L210.551 80.1363L201.635 203.659L201.555 204.745Z" fill="#E6E6E6"/>
<path d="M93.9595 19.1585C93.6486 19.3567 93.3377 19.555 93.0269 19.7627V208.657L93.9595 208.572L136.997 204.745L136.917 203.659L128 80.1363L127.322 70.7624L125.122 40.29L124.92 37.4769L122.588 5.25336C112.534 8.74586 102.924 13.4131 93.9595 19.1585Z" fill="#E6E6E6"/>
<path d="M93.0267 19.7627C92.4002 20.1686 91.7738 20.584 91.1567 21.004V211.235C91.1567 215.988 93.9687 219.971 97.7275 220.986C98.3417 221.153 98.9753 221.237 99.6116 221.236H239.411C240.046 221.237 240.678 221.153 241.29 220.986C242.687 220.598 243.954 219.838 244.955 218.787C246.864 216.742 247.907 214.035 247.866 211.235V24.3128C247.093 23.7416 246.316 23.1752 245.529 22.623C245.374 22.5144 245.218 22.4059 245.063 22.2973V211.235C245.064 211.847 244.991 212.457 244.846 213.052C244.182 215.86 241.992 217.918 239.411 217.918H99.6116C96.4934 217.918 93.9593 214.921 93.9593 211.235V19.1585C93.6484 19.3567 93.3376 19.555 93.0267 19.7627Z" fill="#E6E6E6"/>
<path d="M246.464 37.4788H92.5571V40.2914H246.464V37.4788Z" fill="#E6E6E6"/>
<path d="M199.327 1.60009C198.394 1.36881 197.462 1.15169 196.52 0.94873V77.3232H199.327V1.60009Z" fill="#E6E6E6"/>
<path d="M142.503 0C141.565 0.17464 140.628 0.353995 139.695 0.547516V77.3232H142.503V0Z" fill="#E6E6E6"/>
<path d="M62.3818 216.313C62.3812 217.927 62.6898 219.527 63.2909 221.024C63.5218 221.605 63.7974 222.166 64.1152 222.704C64.5257 223.406 65.002 224.066 65.5377 224.677C66.721 226.028 68.1785 227.111 69.8128 227.853C71.4471 228.594 73.2206 228.978 75.0146 228.977H259.33C262.68 228.977 265.894 227.643 268.263 225.269C270.632 222.895 271.963 219.675 271.963 216.318C271.963 212.961 270.632 209.741 268.263 207.367C265.894 204.993 262.68 203.659 259.33 203.659H75.0146C71.666 203.662 68.4555 204.996 66.0872 207.369C63.7189 209.741 62.3864 212.958 62.3818 216.313Z" fill="#E6E6E6"/>
<path d="M92.5571 80.1374L245.529 80.1374V70.7619L92.5571 70.7619V80.1374Z" fill="#E6E6E6"/>
<path d="M175.592 73.1058H162.493C162.493 72.4286 162.626 71.7581 162.885 71.1325C163.144 70.5068 163.523 69.9384 164 69.4596C164.478 68.9807 165.046 68.6009 165.67 68.3418C166.294 68.0826 166.963 67.9492 167.639 67.9492H170.446C171.811 67.9492 173.12 68.4925 174.085 69.4596C175.05 70.4266 175.592 71.7382 175.592 73.1058Z" fill="#E6E6E6"/>
<path d="M0 223.544C4.09188 228.403 8.51771 232.969 13.2451 237.209H334.755C339.482 232.969 343.908 228.403 348 223.544H0Z" fill="#3F3D56"/>
<path d="M87.2144 177.85V226.258H121.057V177.85C121.058 177.502 120.947 177.163 120.741 176.882C120.535 176.602 120.245 176.395 119.913 176.292C119.756 176.241 119.592 176.215 119.428 176.217H88.8488C88.6344 176.216 88.4221 176.258 88.2239 176.34C88.0257 176.422 87.8456 176.542 87.6938 176.694C87.542 176.846 87.4215 177.026 87.3393 177.224C87.257 177.423 87.2146 177.635 87.2144 177.85ZM100.422 194.483C100.431 193.529 100.815 192.617 101.492 191.945C102.168 191.273 103.082 190.897 104.035 190.897C104.987 190.897 105.901 191.273 106.577 191.945C107.254 192.617 107.638 193.529 107.647 194.483V200.1C107.642 201.057 107.26 201.973 106.583 202.648C105.906 203.323 104.989 203.702 104.035 203.702C103.08 203.702 102.163 203.323 101.486 202.648C100.809 201.973 100.427 201.057 100.422 200.1V194.483Z" fill="#2F2E41"/>
<path d="M87.1108 224.71V229.378C87.1116 229.62 87.2075 229.852 87.3777 230.023C87.5478 230.195 87.7786 230.292 88.0199 230.294H120.252C120.493 230.293 120.725 230.196 120.895 230.024C121.065 229.853 121.161 229.62 121.161 229.378V224.71H87.1108Z" fill="#3F3D56"/>
<path d="M33.9746 104.916V193.303C33.9755 194.43 34.4224 195.51 35.2172 196.306C36.012 197.103 37.0898 197.55 38.2138 197.551H168.922C170.046 197.55 171.124 197.103 171.919 196.306C172.714 195.51 173.161 194.43 173.161 193.303V104.916C173.159 103.791 172.711 102.713 171.917 101.917C171.122 101.122 170.045 100.675 168.922 100.673H38.2138C37.0908 100.675 36.014 101.122 35.2195 101.917C34.4249 102.713 33.9773 103.791 33.9746 104.916Z" fill="#3F3D56"/>
<path d="M37.041 106.016V192.213C37.0421 192.815 37.2811 193.392 37.7057 193.817C38.1304 194.243 38.7061 194.482 39.3066 194.483H167.834C168.435 194.482 169.01 194.243 169.435 193.817C169.86 193.392 170.099 192.815 170.1 192.213V106.016C170.1 105.414 169.861 104.836 169.436 104.409C169.012 103.983 168.436 103.742 167.834 103.741H39.3066C38.7053 103.742 38.1291 103.983 37.7044 104.409C37.2796 104.836 37.0411 105.414 37.041 106.016Z" fill="#787B81"/>
<path d="M63.249 231.394C63.3798 231.558 63.5461 231.691 63.7354 231.781C63.9246 231.872 64.1319 231.919 64.3418 231.918H140.807C141.017 231.917 141.223 231.87 141.412 231.78C141.6 231.69 141.767 231.559 141.898 231.396C142.03 231.233 142.124 231.043 142.173 230.839C142.222 230.636 142.226 230.424 142.183 230.218L140.996 224.569C140.947 224.338 140.841 224.124 140.688 223.945C140.535 223.766 140.339 223.628 140.12 223.544C139.961 223.482 139.791 223.45 139.62 223.45H65.524C65.3532 223.45 65.1838 223.482 65.0247 223.544C64.805 223.628 64.6098 223.766 64.4568 223.945C64.3037 224.124 64.1978 224.338 64.1486 224.569L62.9617 230.218C62.9194 230.423 62.9233 230.635 62.973 230.839C63.0227 231.042 63.117 231.231 63.249 231.394Z" fill="#2F2E41"/>
<path d="M136.952 225.883H138.847C138.974 225.883 139.077 225.78 139.077 225.653V224.698C139.077 224.571 138.974 224.467 138.847 224.467H136.952C136.825 224.467 136.722 224.571 136.722 224.698V225.653C136.722 225.78 136.825 225.883 136.952 225.883Z" fill="#3F3D56"/>
<path d="M132.242 225.883H134.137C134.264 225.883 134.367 225.78 134.367 225.653V224.698C134.367 224.571 134.264 224.467 134.137 224.467H132.242C132.115 224.467 132.012 224.571 132.012 224.698V225.653C132.012 225.78 132.115 225.883 132.242 225.883Z" fill="#3F3D56"/>
<path d="M127.532 225.883H129.427C129.554 225.883 129.657 225.78 129.657 225.653V224.698C129.657 224.571 129.554 224.467 129.427 224.467H127.532C127.405 224.467 127.302 224.571 127.302 224.698V225.653C127.302 225.78 127.405 225.883 127.532 225.883Z" fill="#3F3D56"/>
<path d="M122.821 225.883H124.716C124.843 225.883 124.946 225.78 124.946 225.653V224.698C124.946 224.571 124.843 224.467 124.716 224.467H122.821C122.694 224.467 122.591 224.571 122.591 224.698V225.653C122.591 225.78 122.694 225.883 122.821 225.883Z" fill="#3F3D56"/>
<path d="M118.111 225.883H120.006C120.133 225.883 120.236 225.78 120.236 225.653V224.698C120.236 224.571 120.133 224.467 120.006 224.467H118.111C117.984 224.467 117.881 224.571 117.881 224.698V225.653C117.881 225.78 117.984 225.883 118.111 225.883Z" fill="#3F3D56"/>
<path d="M113.401 225.883H115.296C115.423 225.883 115.526 225.78 115.526 225.653V224.698C115.526 224.571 115.423 224.467 115.296 224.467H113.401C113.274 224.467 113.171 224.571 113.171 224.698V225.653C113.171 225.78 113.274 225.883 113.401 225.883Z" fill="#3F3D56"/>
<path d="M108.691 225.883H110.586C110.713 225.883 110.816 225.78 110.816 225.653V224.698C110.816 224.571 110.713 224.467 110.586 224.467H108.691C108.564 224.467 108.461 224.571 108.461 224.698V225.653C108.461 225.78 108.564 225.883 108.691 225.883Z" fill="#3F3D56"/>
<path d="M103.98 225.883H105.876C106.003 225.883 106.105 225.78 106.105 225.653V224.698C106.105 224.571 106.003 224.467 105.876 224.467H103.98C103.853 224.467 103.75 224.571 103.75 224.698V225.653C103.75 225.78 103.853 225.883 103.98 225.883Z" fill="#3F3D56"/>
<path d="M99.2703 225.883H101.166C101.293 225.883 101.396 225.78 101.396 225.653V224.698C101.396 224.571 101.293 224.467 101.166 224.467H99.2703C99.1434 224.467 99.0404 224.571 99.0404 224.698V225.653C99.0404 225.78 99.1434 225.883 99.2703 225.883Z" fill="#3F3D56"/>
<path d="M94.5599 225.883H96.4551C96.5821 225.883 96.6851 225.78 96.6851 225.653V224.698C96.6851 224.571 96.5821 224.467 96.4551 224.467H94.5599C94.4329 224.467 94.33 224.571 94.33 224.698V225.653C94.33 225.78 94.4329 225.883 94.5599 225.883Z" fill="#3F3D56"/>
<path d="M89.8499 225.883H91.7451C91.8721 225.883 91.9751 225.78 91.9751 225.653V224.698C91.9751 224.571 91.8721 224.467 91.7451 224.467H89.8499C89.7229 224.467 89.62 224.571 89.62 224.698V225.653C89.62 225.78 89.7229 225.883 89.8499 225.883Z" fill="#3F3D56"/>
<path d="M85.1395 225.883H87.0347C87.1617 225.883 87.2646 225.78 87.2646 225.653V224.698C87.2646 224.571 87.1617 224.467 87.0347 224.467H85.1395C85.0125 224.467 84.9095 224.571 84.9095 224.698V225.653C84.9095 225.78 85.0125 225.883 85.1395 225.883Z" fill="#3F3D56"/>
<path d="M80.4295 225.883H82.3247C82.4517 225.883 82.5547 225.78 82.5547 225.653V224.698C82.5547 224.571 82.4517 224.467 82.3247 224.467H80.4295C80.3025 224.467 80.1996 224.571 80.1996 224.698V225.653C80.1996 225.78 80.3025 225.883 80.4295 225.883Z" fill="#3F3D56"/>
<path d="M75.7191 225.883H77.6143C77.7413 225.883 77.8442 225.78 77.8442 225.653V224.698C77.8442 224.571 77.7413 224.467 77.6143 224.467H75.7191C75.5921 224.467 75.4891 224.571 75.4891 224.698V225.653C75.4891 225.78 75.5921 225.883 75.7191 225.883Z" fill="#3F3D56"/>
<path d="M71.0091 225.883H72.9043C73.0313 225.883 73.1343 225.78 73.1343 225.653V224.698C73.1343 224.571 73.0313 224.467 72.9043 224.467H71.0091C70.8821 224.467 70.7792 224.571 70.7792 224.698V225.653C70.7792 225.78 70.8821 225.883 71.0091 225.883Z" fill="#3F3D56"/>
<path d="M66.2987 225.883H68.1939C68.3209 225.883 68.4238 225.78 68.4238 225.653V224.698C68.4238 224.571 68.3209 224.467 68.1939 224.467H66.2987C66.1717 224.467 66.0687 224.571 66.0687 224.698V225.653C66.0687 225.78 66.1717 225.883 66.2987 225.883Z" fill="#3F3D56"/>
<path d="M137.008 228.244H138.903C139.03 228.244 139.133 228.14 139.133 228.013V227.058C139.133 226.931 139.03 226.828 138.903 226.828H137.008C136.881 226.828 136.778 226.931 136.778 227.058V228.013C136.778 228.14 136.881 228.244 137.008 228.244Z" fill="#3F3D56"/>
<path d="M132.297 228.244H134.192C134.319 228.244 134.422 228.14 134.422 228.013V227.058C134.422 226.931 134.319 226.828 134.192 226.828H132.297C132.17 226.828 132.067 226.931 132.067 227.058V228.013C132.067 228.14 132.17 228.244 132.297 228.244Z" fill="#3F3D56"/>
<path d="M127.587 228.244H129.482C129.609 228.244 129.712 228.14 129.712 228.013V227.058C129.712 226.931 129.609 226.828 129.482 226.828H127.587C127.46 226.828 127.357 226.931 127.357 227.058V228.013C127.357 228.14 127.46 228.244 127.587 228.244Z" fill="#3F3D56"/>
<path d="M122.877 228.244H124.772C124.899 228.244 125.002 228.14 125.002 228.013V227.058C125.002 226.931 124.899 226.828 124.772 226.828H122.877C122.75 226.828 122.647 226.931 122.647 227.058V228.013C122.647 228.14 122.75 228.244 122.877 228.244Z" fill="#3F3D56"/>
<path d="M118.167 228.244H120.062C120.189 228.244 120.292 228.14 120.292 228.013V227.058C120.292 226.931 120.189 226.828 120.062 226.828H118.167C118.04 226.828 117.937 226.931 117.937 227.058V228.013C117.937 228.14 118.04 228.244 118.167 228.244Z" fill="#3F3D56"/>
<path d="M113.456 228.244H115.352C115.479 228.244 115.582 228.14 115.582 228.013V227.058C115.582 226.931 115.479 226.828 115.352 226.828H113.456C113.329 226.828 113.226 226.931 113.226 227.058V228.013C113.226 228.14 113.329 228.244 113.456 228.244Z" fill="#3F3D56"/>
<path d="M108.746 228.244H110.642C110.769 228.244 110.872 228.14 110.872 228.013V227.058C110.872 226.931 110.769 226.828 110.642 226.828H108.746C108.619 226.828 108.516 226.931 108.516 227.058V228.013C108.516 228.14 108.619 228.244 108.746 228.244Z" fill="#3F3D56"/>
<path d="M104.036 228.244H105.931C106.058 228.244 106.161 228.14 106.161 228.013V227.058C106.161 226.931 106.058 226.828 105.931 226.828H104.036C103.909 226.828 103.806 226.931 103.806 227.058V228.013C103.806 228.14 103.909 228.244 104.036 228.244Z" fill="#3F3D56"/>
<path d="M99.326 228.244H101.221C101.348 228.244 101.451 228.14 101.451 228.013V227.058C101.451 226.931 101.348 226.828 101.221 226.828H99.326C99.199 226.828 99.0961 226.931 99.0961 227.058V228.013C99.0961 228.14 99.199 228.244 99.326 228.244Z" fill="#3F3D56"/>
<path d="M94.6156 228.244H96.5108C96.6378 228.244 96.7407 228.14 96.7407 228.013V227.058C96.7407 226.931 96.6378 226.828 96.5108 226.828H94.6156C94.4886 226.828 94.3856 226.931 94.3856 227.058V228.013C94.3856 228.14 94.4886 228.244 94.6156 228.244Z" fill="#3F3D56"/>
<path d="M89.9056 228.244H91.8008C91.9278 228.244 92.0308 228.14 92.0308 228.013V227.058C92.0308 226.931 91.9278 226.828 91.8008 226.828H89.9056C89.7786 226.828 89.6757 226.931 89.6757 227.058V228.013C89.6757 228.14 89.7786 228.244 89.9056 228.244Z" fill="#3F3D56"/>
<path d="M85.1952 228.244H87.0904C87.2174 228.244 87.3203 228.14 87.3203 228.013V227.058C87.3203 226.931 87.2174 226.828 87.0904 226.828H85.1952C85.0682 226.828 84.9652 226.931 84.9652 227.058V228.013C84.9652 228.14 85.0682 228.244 85.1952 228.244Z" fill="#3F3D56"/>
<path d="M80.4852 228.244H82.3804C82.5074 228.244 82.6104 228.14 82.6104 228.013V227.058C82.6104 226.931 82.5074 226.828 82.3804 226.828H80.4852C80.3582 226.828 80.2552 226.931 80.2552 227.058V228.013C80.2552 228.14 80.3582 228.244 80.4852 228.244Z" fill="#3F3D56"/>
<path d="M75.7747 228.244H77.67C77.797 228.244 77.8999 228.14 77.8999 228.013V227.058C77.8999 226.931 77.797 226.828 77.67 226.828H75.7747C75.6477 226.828 75.5448 226.931 75.5448 227.058V228.013C75.5448 228.14 75.6477 228.244 75.7747 228.244Z" fill="#3F3D56"/>
<path d="M71.0648 228.244H72.96C73.087 228.244 73.1899 228.14 73.1899 228.013V227.058C73.1899 226.931 73.087 226.828 72.96 226.828H71.0648C70.9378 226.828 70.8348 226.931 70.8348 227.058V228.013C70.8348 228.14 70.9378 228.244 71.0648 228.244Z" fill="#3F3D56"/>
<path d="M66.3543 228.244H68.2495C68.3765 228.244 68.4795 228.14 68.4795 228.013V227.058C68.4795 226.931 68.3765 226.828 68.2495 226.828H66.3543C66.2273 226.828 66.1244 226.931 66.1244 227.058V228.013C66.1244 228.14 66.2273 228.244 66.3543 228.244Z" fill="#3F3D56"/>
<path d="M97.913 231.076H116.294C116.421 231.076 116.524 230.972 116.524 230.845V229.89C116.524 229.763 116.421 229.659 116.294 229.659H97.913C97.786 229.659 97.6831 229.763 97.6831 229.89V230.845C97.6831 230.972 97.786 231.076 97.913 231.076Z" fill="#3F3D56"/>
<path d="M45.7652 115.615H166.028C166.153 115.612 166.272 115.561 166.359 115.471C166.447 115.382 166.496 115.261 166.496 115.136C166.496 115.011 166.447 114.89 166.359 114.801C166.272 114.711 166.153 114.659 166.028 114.657H45.7652C45.6402 114.659 45.5212 114.711 45.4338 114.801C45.3463 114.89 45.2974 115.011 45.2974 115.136C45.2974 115.261 45.3463 115.382 45.4338 115.471C45.5212 115.561 45.6402 115.612 45.7652 115.615Z" fill="#3F3D56"/>
<path d="M157.842 112.21C159.39 112.21 160.645 110.924 160.645 109.338C160.645 107.753 159.39 106.467 157.842 106.467C156.294 106.467 155.039 107.753 155.039 109.338C155.039 110.924 156.294 112.21 157.842 112.21Z" fill="#3F3D56"/>
<path d="M148.159 112.21C149.707 112.21 150.962 110.924 150.962 109.338C150.962 107.753 149.707 106.467 148.159 106.467C146.611 106.467 145.356 107.753 145.356 109.338C145.356 110.924 146.611 112.21 148.159 112.21Z" fill="#3F3D56"/>
<path d="M138.477 112.21C140.025 112.21 141.28 110.924 141.28 109.338C141.28 107.753 140.025 106.467 138.477 106.467C136.929 106.467 135.674 107.753 135.674 109.338C135.674 110.924 136.929 112.21 138.477 112.21Z" fill="#3F3D56"/>
<path d="M51.082 107.701C51.0817 107.769 51.0947 107.836 51.1204 107.899C51.146 107.962 51.1837 108.019 51.2314 108.067C51.2791 108.116 51.3358 108.154 51.3982 108.18C51.4607 108.206 51.5277 108.22 51.5955 108.22H58.4724C58.6083 108.217 58.7376 108.161 58.8326 108.063C58.9277 107.966 58.9808 107.835 58.9808 107.699C58.9808 107.563 58.9277 107.432 58.8326 107.334C58.7376 107.237 58.6083 107.18 58.4724 107.177H51.5955C51.4582 107.179 51.3271 107.235 51.2309 107.333C51.1347 107.431 51.0812 107.564 51.082 107.701Z" fill="#3F3D56"/>
<path d="M51.082 109.66C51.0817 109.728 51.0947 109.795 51.1204 109.858C51.146 109.921 51.1837 109.978 51.2314 110.026C51.2791 110.074 51.3358 110.113 51.3982 110.139C51.4607 110.165 51.5277 110.179 51.5955 110.179H58.4724C58.6084 110.176 58.7379 110.12 58.833 110.022C58.9282 109.925 58.9815 109.794 58.9815 109.658C58.9815 109.521 58.9282 109.39 58.833 109.293C58.7379 109.195 58.6084 109.139 58.4724 109.136H51.5955C51.4582 109.138 51.3271 109.194 51.2309 109.292C51.1347 109.39 51.0812 109.522 51.082 109.66Z" fill="#3F3D56"/>
<path d="M51.082 111.614C51.0812 111.752 51.1347 111.884 51.2309 111.982C51.3271 112.08 51.4582 112.136 51.5955 112.138H58.4724C58.6083 112.135 58.7376 112.078 58.8326 111.981C58.9277 111.884 58.9808 111.753 58.9808 111.616C58.9808 111.48 58.9277 111.349 58.8326 111.252C58.7376 111.154 58.6083 111.098 58.4724 111.095H51.5955C51.5277 111.095 51.4607 111.109 51.3982 111.135C51.3358 111.161 51.2791 111.2 51.2314 111.248C51.1837 111.296 51.146 111.353 51.1204 111.416C51.0947 111.479 51.0817 111.546 51.082 111.614Z" fill="#3F3D56"/>
<path d="M53.2075 126.753H50.7364C49.9872 126.753 49.3799 127.361 49.3799 128.112C49.3799 128.863 49.9872 129.471 50.7364 129.471H53.2075C53.9566 129.471 54.564 128.863 54.564 128.112C54.564 127.361 53.9566 126.753 53.2075 126.753Z" fill="#E6E6E6"/>
<path d="M81.4687 126.753H78.9976C78.2485 126.753 77.6411 127.361 77.6411 128.112C77.6411 128.863 78.2485 129.471 78.9976 129.471H81.4687C82.2179 129.471 82.8252 128.863 82.8252 128.112C82.8252 127.361 82.2179 126.753 81.4687 126.753Z" fill="#E6E6E6"/>
<path d="M89.476 126.753H87.005C86.2558 126.753 85.6484 127.361 85.6484 128.112C85.6484 128.863 86.2558 129.471 87.005 129.471H89.476C90.2252 129.471 90.8325 128.863 90.8325 128.112C90.8325 127.361 90.2252 126.753 89.476 126.753Z" fill="#E6E6E6"/>
<path d="M73.7819 126.526H58.4239C57.6747 126.526 57.0674 127.135 57.0674 127.885C57.0674 128.636 57.6747 129.245 58.4239 129.245H73.7819C74.5311 129.245 75.1384 128.636 75.1384 127.885C75.1384 127.135 74.5311 126.526 73.7819 126.526Z" fill="#E6E6E6"/>
<path d="M111.464 126.526H96.1056C95.3564 126.526 94.749 127.135 94.749 127.885C94.749 128.636 95.3564 129.245 96.1056 129.245H111.464C112.213 129.245 112.82 128.636 112.82 127.885C112.82 127.135 112.213 126.526 111.464 126.526Z" fill="#E6E6E6"/>
<path d="M60.7441 132.889H58.273C57.5238 132.889 56.9165 133.497 56.9165 134.248C56.9165 134.999 57.5238 135.607 58.273 135.607H60.7441C61.4933 135.607 62.1006 134.999 62.1006 134.248C62.1006 133.497 61.4933 132.889 60.7441 132.889Z" fill="#E6E6E6"/>
<path d="M89.0053 132.889H86.5343C85.7851 132.889 85.1777 133.497 85.1777 134.248C85.1777 134.999 85.7851 135.607 86.5343 135.607H89.0053C89.7545 135.607 90.3618 134.999 90.3618 134.248C90.3618 133.497 89.7545 132.889 89.0053 132.889Z" fill="#E6E6E6"/>
<path d="M97.0126 132.889H94.5416C93.7924 132.889 93.1851 133.497 93.1851 134.248C93.1851 134.999 93.7924 135.607 94.5416 135.607H97.0126C97.7618 135.607 98.3692 134.999 98.3692 134.248C98.3692 133.497 97.7618 132.889 97.0126 132.889Z" fill="#E6E6E6"/>
<path d="M81.3181 132.662H65.96C65.2109 132.662 64.6035 133.271 64.6035 134.021C64.6035 134.772 65.2109 135.381 65.96 135.381H81.3181C82.0672 135.381 82.6746 134.772 82.6746 134.021C82.6746 133.271 82.0672 132.662 81.3181 132.662Z" fill="#E6E6E6"/>
<path d="M119 132.662H103.642C102.892 132.662 102.285 133.271 102.285 134.021C102.285 134.772 102.892 135.381 103.642 135.381H119C119.749 135.381 120.356 134.772 120.356 134.021C120.356 133.271 119.749 132.662 119 132.662Z" fill="#E6E6E6"/>
<path d="M68.2802 139.025H65.8092C65.06 139.025 64.4526 139.633 64.4526 140.384C64.4526 141.135 65.06 141.743 65.8092 141.743H68.2802C69.0294 141.743 69.6367 141.135 69.6367 140.384C69.6367 139.633 69.0294 139.025 68.2802 139.025Z" fill="#E6E6E6"/>
<path d="M96.5415 139.025H94.0704C93.3212 139.025 92.7139 139.633 92.7139 140.384C92.7139 141.135 93.3212 141.743 94.0704 141.743H96.5415C97.2906 141.743 97.898 141.135 97.898 140.384C97.898 139.633 97.2906 139.025 96.5415 139.025Z" fill="#E6E6E6"/>
<path d="M104.549 139.025H102.078C101.329 139.025 100.721 139.633 100.721 140.384C100.721 141.135 101.329 141.743 102.078 141.743H104.549C105.298 141.743 105.905 141.135 105.905 140.384C105.905 139.633 105.298 139.025 104.549 139.025Z" fill="#E6E6E6"/>
<path d="M88.8542 138.798H73.4962C72.747 138.798 72.1396 139.407 72.1396 140.157C72.1396 140.908 72.747 141.517 73.4962 141.517H88.8542C89.6034 141.517 90.2107 140.908 90.2107 140.157C90.2107 139.407 89.6034 138.798 88.8542 138.798Z" fill="#E6E6E6"/>
<path d="M126.536 138.798H111.178C110.429 138.798 109.821 139.407 109.821 140.157C109.821 140.908 110.429 141.517 111.178 141.517H126.536C127.285 141.517 127.892 140.908 127.892 140.157C127.892 139.407 127.285 138.798 126.536 138.798Z" fill="#E6E6E6"/>
<path d="M75.8164 145.161H73.3453C72.5961 145.161 71.9888 145.769 71.9888 146.52C71.9888 147.271 72.5961 147.879 73.3453 147.879H75.8164C76.5655 147.879 77.1729 147.271 77.1729 146.52C77.1729 145.769 76.5655 145.161 75.8164 145.161Z" fill="#E6E6E6"/>
<path d="M104.078 145.161H101.607C100.858 145.161 100.25 145.769 100.25 146.52C100.25 147.271 100.858 147.879 101.607 147.879H104.078C104.827 147.879 105.435 147.271 105.435 146.52C105.435 145.769 104.827 145.161 104.078 145.161Z" fill="#E6E6E6"/>
<path d="M112.085 145.161H109.614C108.865 145.161 108.258 145.769 108.258 146.52C108.258 147.271 108.865 147.879 109.614 147.879H112.085C112.835 147.879 113.442 147.271 113.442 146.52C113.442 145.769 112.835 145.161 112.085 145.161Z" fill="#E6E6E6"/>
<path d="M96.3908 144.934H81.0328C80.2836 144.934 79.6763 145.543 79.6763 146.293C79.6763 147.044 80.2836 147.653 81.0328 147.653H96.3908C97.14 147.653 97.7473 147.044 97.7473 146.293C97.7473 145.543 97.14 144.934 96.3908 144.934Z" fill="#E6E6E6"/>
<path d="M81.4687 169.56H78.9976C78.2485 169.56 77.6411 170.169 77.6411 170.919C77.6411 171.67 78.2485 172.279 78.9976 172.279H81.4687C82.2179 172.279 82.8252 171.67 82.8252 170.919C82.8252 170.169 82.2179 169.56 81.4687 169.56Z" fill="#E6E6E6"/>
<path d="M89.476 169.56H87.005C86.2558 169.56 85.6484 170.169 85.6484 170.919C85.6484 171.67 86.2558 172.279 87.005 172.279H89.476C90.2252 172.279 90.8325 171.67 90.8325 170.919C90.8325 170.169 90.2252 169.56 89.476 169.56Z" fill="#E6E6E6"/>
<path d="M111.464 169.787H96.1056C95.3564 169.787 94.749 170.395 94.749 171.146C94.749 171.897 95.3564 172.505 96.1056 172.505H111.464C112.213 172.505 112.82 171.897 112.82 171.146C112.82 170.395 112.213 169.787 111.464 169.787Z" fill="#E6E6E6"/>
<path d="M53.2075 169.56H50.7364C49.9872 169.56 49.3799 170.169 49.3799 170.919C49.3799 171.67 49.9872 172.279 50.7364 172.279H53.2075C53.9566 172.279 54.564 171.67 54.564 170.919C54.564 170.169 53.9566 169.56 53.2075 169.56Z" fill="#E6E6E6"/>
<path d="M73.7819 169.787H58.4239C57.6747 169.787 57.0674 170.395 57.0674 171.146C57.0674 171.897 57.6747 172.505 58.4239 172.505H73.7819C74.5311 172.505 75.1384 171.897 75.1384 171.146C75.1384 170.395 74.5311 169.787 73.7819 169.787Z" fill="#E6E6E6"/>
<path d="M60.7441 163.424H58.273C57.5238 163.424 56.9165 164.033 56.9165 164.783C56.9165 165.534 57.5238 166.143 58.273 166.143H60.7441C61.4933 166.143 62.1006 165.534 62.1006 164.783C62.1006 164.033 61.4933 163.424 60.7441 163.424Z" fill="#E6E6E6"/>
<path d="M89.0053 163.424H86.5343C85.7851 163.424 85.1777 164.033 85.1777 164.783C85.1777 165.534 85.7851 166.143 86.5343 166.143H89.0053C89.7545 166.143 90.3618 165.534 90.3618 164.783C90.3618 164.033 89.7545 163.424 89.0053 163.424Z" fill="#E6E6E6"/>
<path d="M97.0126 163.424H94.5416C93.7924 163.424 93.1851 164.033 93.1851 164.783C93.1851 165.534 93.7924 166.143 94.5416 166.143H97.0126C97.7618 166.143 98.3692 165.534 98.3692 164.783C98.3692 164.033 97.7618 163.424 97.0126 163.424Z" fill="#E6E6E6"/>
<path d="M81.3181 163.651H65.96C65.2109 163.651 64.6035 164.259 64.6035 165.01C64.6035 165.761 65.2109 166.369 65.96 166.369H81.3181C82.0672 166.369 82.6746 165.761 82.6746 165.01C82.6746 164.259 82.0672 163.651 81.3181 163.651Z" fill="#E6E6E6"/>
<path d="M68.2802 157.288H65.8092C65.06 157.288 64.4526 157.897 64.4526 158.647C64.4526 159.398 65.06 160.007 65.8092 160.007H68.2802C69.0294 160.007 69.6367 159.398 69.6367 158.647C69.6367 157.897 69.0294 157.288 68.2802 157.288Z" fill="#E6E6E6"/>
<path d="M96.5415 157.288H94.0704C93.3212 157.288 92.7139 157.897 92.7139 158.647C92.7139 159.398 93.3212 160.007 94.0704 160.007H96.5415C97.2906 160.007 97.898 159.398 97.898 158.647C97.898 157.897 97.2906 157.288 96.5415 157.288Z" fill="#E6E6E6"/>
<path d="M104.549 157.288H102.078C101.329 157.288 100.721 157.897 100.721 158.647C100.721 159.398 101.329 160.007 102.078 160.007H104.549C105.298 160.007 105.905 159.398 105.905 158.647C105.905 157.897 105.298 157.288 104.549 157.288Z" fill="#E6E6E6"/>
<path d="M88.8542 157.515H73.4962C72.747 157.515 72.1396 158.123 72.1396 158.874C72.1396 159.625 72.747 160.233 73.4962 160.233H88.8542C89.6034 160.233 90.2107 159.625 90.2107 158.874C90.2107 158.123 89.6034 157.515 88.8542 157.515Z" fill="#E6E6E6"/>
<path d="M75.8164 151.152H73.3453C72.5961 151.152 71.9888 151.761 71.9888 152.511C71.9888 153.262 72.5961 153.871 73.3453 153.871H75.8164C76.5655 153.871 77.1729 153.262 77.1729 152.511C77.1729 151.761 76.5655 151.152 75.8164 151.152Z" fill="#E6E6E6"/>
<path d="M104.078 151.152H101.607C100.858 151.152 100.25 151.761 100.25 152.511C100.25 153.262 100.858 153.871 101.607 153.871H104.078C104.827 153.871 105.435 153.262 105.435 152.511C105.435 151.761 104.827 151.152 104.078 151.152Z" fill="#E6E6E6"/>
<path d="M112.085 151.152H109.614C108.865 151.152 108.258 151.761 108.258 152.511C108.258 153.262 108.865 153.871 109.614 153.871H112.085C112.835 153.871 113.442 153.262 113.442 152.511C113.442 151.761 112.835 151.152 112.085 151.152Z" fill="#E6E6E6"/>
<path d="M96.3908 151.379H81.0328C80.2836 151.379 79.6763 151.987 79.6763 152.738C79.6763 153.489 80.2836 154.097 81.0328 154.097H96.3908C97.14 154.097 97.7473 153.489 97.7473 152.738C97.7473 151.987 97.14 151.379 96.3908 151.379Z" fill="#E6E6E6"/>
<path d="M44.3232 258.203C44.6106 258.35 44.9026 258.496 45.1899 258.638C52.6321 262.366 58.5857 264.486 66.7297 266.808C67.4174 259.114 68.0816 245.592 68.7269 237.209C68.8964 235.033 69.066 233.206 69.2309 231.918C69.2724 231.233 69.412 230.557 69.6454 229.912L69.6171 231.918L69.5464 237.209L69.1366 267.469C79.2671 270.155 89.6736 271.658 100.149 271.948C100.695 271.962 101.232 271.972 101.75 271.981C101.934 271.986 102.113 271.991 102.292 271.991C102.881 271.995 103.465 272 104.053 272C115.092 272.008 126.091 270.672 136.808 268.021C136.577 260.408 136.347 247.036 136.125 237.209C136.078 235.288 136.036 233.499 135.989 231.918C135.899 228.538 135.805 226.103 135.716 225.286C135.795 225.431 135.857 225.584 135.899 225.744C136.335 227.779 136.633 229.842 136.789 231.918C136.954 233.499 137.119 235.288 137.284 237.209C138.16 247.418 139.074 261.3 140.016 267.186C145.623 265.652 151.125 263.755 156.488 261.507C159.314 260.327 162.09 259.055 164.815 257.689C164.297 254.291 163.755 250.481 163.2 246.531C162.766 243.468 162.319 240.319 161.862 237.209C161.155 232.404 150.656 198.826 149.992 197.551C149.422 196.461 148.881 195.432 148.367 194.483C147.124 192.18 146.069 190.344 145.287 189.183C142.018 184.214 137.151 180.515 131.495 178.7L131.354 178.662L131.255 178.704L121.623 175.74L120.214 175.306L119.267 175.013L115.933 172.469L114.119 171.086L112.419 169.788L109.093 167.254L88.5051 168.523L84.4967 178.195L75.519 181.484L75.3636 181.414L75.227 181.357L75.0857 181.395C69.4305 183.212 64.5645 186.91 61.2942 191.878C60.8515 192.543 60.3145 193.421 59.7068 194.483C59.1887 195.385 58.6235 196.414 58.0112 197.551C57.1398 199.17 56.1883 200.997 55.1803 202.975C54.959 203.409 54.7329 203.852 54.5068 204.301C54.0876 205.132 53.6621 205.98 53.2303 206.845C52.227 208.851 51.1908 210.947 50.1545 213.075C49.2549 214.921 48.3458 218.716 47.4509 223.544C46.7114 227.556 45.9766 232.286 45.2653 237.209C44.3327 243.59 45.3266 251.232 44.4834 257.104C44.4316 257.477 44.3751 257.84 44.3232 258.203Z" fill="#3F3D56"/>
<path opacity="0.2" d="M142.997 223.524L138.995 208.046L135.461 221.402L142.997 223.524Z" fill="black"/>
<path d="M36.4946 213.439C37.9265 233.206 36.4428 241.91 44.3465 258.208C51.5378 261.735 59.0284 264.613 66.7295 266.808C67.5302 267.035 68.3325 267.255 69.1364 267.469C79.2669 270.155 89.6734 271.658 100.148 271.948C100.695 271.962 101.232 271.972 101.75 271.981C101.934 271.986 102.113 271.991 102.292 271.991C102.88 271.995 103.464 272 104.053 272C115.092 272.008 126.091 270.672 136.808 268.021C137.882 267.757 138.951 267.478 140.016 267.186C145.623 265.652 151.125 263.755 156.487 261.507C159.313 260.327 162.089 259.055 164.815 257.689C165.432 257.377 166.049 257.066 166.657 256.745C169.78 251.241 171.555 244.548 171.593 236.505C169.431 222.648 41.2708 201.488 36.4946 213.439Z" fill="#2F2E41"/>
<path opacity="0.2" d="M36.4983 216.824C36.4252 215.6 36.3434 214.336 36.248 213.02C41.0242 201.069 169.184 222.229 171.346 236.087C171.34 237.357 171.286 238.59 171.195 239.794C165.959 226.116 44.2055 206.005 36.4983 216.824Z" fill="black"/>
<path d="M7.45589 223.344C7.66341 223.95 8.05706 224.474 8.58031 224.841C9.10357 225.208 9.72952 225.4 10.3683 225.388L22.8465 225.067C23.4899 225.054 24.112 224.833 24.6198 224.437C25.1276 224.041 25.4937 223.491 25.6636 222.868L27.4294 203.947C28.0559 204.232 28.7379 204.372 29.4255 204.358C30.6315 204.327 31.7758 203.817 32.6069 202.941C33.438 202.065 33.8878 200.894 33.8576 199.685C33.8273 198.477 33.3194 197.33 32.4455 196.496C31.5716 195.663 30.4032 195.211 29.1971 195.241C28.9223 195.24 28.6481 195.269 28.3794 195.326C28.0871 195.009 27.7318 194.757 27.3364 194.586C26.9409 194.415 26.5142 194.329 26.0836 194.333L6.88921 194.83C6.72999 194.836 6.57157 194.856 6.41575 194.889C5.99481 194.968 5.59557 195.136 5.2449 195.382C4.89422 195.628 4.60025 195.947 4.38277 196.316C4.16529 196.686 4.02934 197.098 3.98408 197.525C3.93882 197.951 3.98529 198.383 4.12037 198.79L7.45589 223.344ZM27.7915 202.663L29.048 198.154C29.191 197.633 29.1943 197.083 29.0576 196.561C29.1186 196.561 29.1724 196.532 29.2333 196.532C30.0949 196.514 30.9283 196.839 31.551 197.436C32.1736 198.033 32.5346 198.853 32.5547 199.716C32.5749 200.58 32.2526 201.416 31.6586 202.041C31.0645 202.667 30.2472 203.031 29.3857 203.053C28.8288 203.071 28.2776 202.936 27.7915 202.663Z" fill="#2F2E41"/>
<path d="M6.41602 194.889C6.82495 197.232 11.4225 198.879 16.9508 198.593C22.0344 198.358 26.1911 196.569 26.9526 194.449C26.6707 194.366 26.3777 194.327 26.0838 194.333L6.88948 194.83C6.73026 194.836 6.57184 194.856 6.41602 194.889Z" fill="#3F3D56"/>
<path d="M17.9638 212.947C17.989 212.94 18.0131 212.93 18.0349 212.915L20.7447 211.138C20.7775 211.117 20.8044 211.087 20.823 211.053C20.8417 211.018 20.8514 210.98 20.8515 210.941C20.8515 210.902 20.8417 210.863 20.8231 210.828C20.8045 210.794 20.7776 210.765 20.7449 210.743L17.9283 208.895C17.9024 208.878 17.8734 208.866 17.843 208.86C17.8126 208.854 17.7813 208.854 17.7509 208.86C17.7206 208.867 17.6917 208.879 17.6661 208.896C17.6405 208.914 17.6185 208.936 17.6015 208.962C17.5845 208.988 17.5728 209.017 17.5671 209.048C17.5613 209.078 17.5617 209.109 17.568 209.14C17.5744 209.17 17.5867 209.199 17.6042 209.225C17.6218 209.25 17.6442 209.272 17.6702 209.289L20.1859 210.94L17.7771 212.521C17.7304 212.551 17.6961 212.597 17.6802 212.651C17.6643 212.704 17.6679 212.762 17.6903 212.813C17.7127 212.864 17.7525 212.905 17.8025 212.93C17.8526 212.955 17.9098 212.96 17.9638 212.947Z" fill="#787B81"/>
<path d="M13.6837 213.145C13.7292 213.133 13.7702 213.108 13.8015 213.073C13.8327 213.038 13.8528 212.994 13.8592 212.948C13.8656 212.901 13.8579 212.854 13.8373 212.812C13.8166 212.77 13.7838 212.734 13.7431 212.711L11.2452 211.276L13.6595 209.479C13.6843 209.461 13.7052 209.437 13.7211 209.411C13.737 209.384 13.7475 209.355 13.752 209.324C13.7565 209.293 13.7549 209.262 13.7474 209.232C13.7398 209.202 13.7265 209.174 13.708 209.149C13.6896 209.124 13.6665 209.103 13.6399 209.087C13.6134 209.071 13.584 209.061 13.5534 209.056C13.5229 209.052 13.4917 209.053 13.4617 209.061C13.4318 209.069 13.4036 209.082 13.3788 209.1L10.6758 211.112C10.6443 211.136 10.6192 211.167 10.6027 211.202C10.5861 211.238 10.5787 211.277 10.581 211.316C10.5833 211.355 10.5953 211.393 10.6159 211.426C10.6364 211.459 10.665 211.487 10.6989 211.506L13.5087 213.121C13.5617 213.151 13.6245 213.16 13.6837 213.145Z" fill="#787B81"/>
<path d="M17.6943 214.504C17.7171 214.499 17.7389 214.489 17.7589 214.477C17.7853 214.461 17.8083 214.44 17.8266 214.415C17.8449 214.39 17.8581 214.361 17.8654 214.331C17.8728 214.301 17.8741 214.27 17.8693 214.239C17.8646 214.209 17.8539 214.179 17.8378 214.153L13.9964 207.824C13.9637 207.771 13.9114 207.733 13.8508 207.718C13.7902 207.704 13.7263 207.714 13.6731 207.746C13.6199 207.779 13.5817 207.831 13.5668 207.892C13.552 207.952 13.5617 208.016 13.5939 208.07L17.4353 214.398C17.4615 214.442 17.5008 214.475 17.5474 214.494C17.5941 214.513 17.6455 214.517 17.6943 214.504Z" fill="#787B81"/>
<path d="M316.06 187.944H274.139V224.76H316.06V187.944Z" fill="#3F3D56"/>
<path d="M322.273 136.519C321.496 141.135 322.178 145.879 324.225 150.086C324.982 151.634 325.921 153.498 324.998 154.953C324.739 155.316 324.403 155.617 324.013 155.834C323.623 156.05 323.19 156.177 322.745 156.204C321.855 156.251 320.963 156.136 320.115 155.863" fill="#CCCCCC"/>
<path d="M285.443 122.336C286.223 122.336 286.856 121.808 286.856 121.156C286.856 120.504 286.223 119.976 285.443 119.976C284.662 119.976 284.03 120.504 284.03 121.156C284.03 121.808 284.662 122.336 285.443 122.336Z" fill="#3F3D56"/>
<path d="M290.624 122.808C291.404 122.808 292.037 122.28 292.037 121.628C292.037 120.976 291.404 120.448 290.624 120.448C289.844 120.448 289.211 120.976 289.211 121.628C289.211 122.28 289.844 122.808 290.624 122.808Z" fill="#3F3D56"/>
<path d="M295.806 125.168C296.586 125.168 297.219 124.639 297.219 123.988C297.219 123.336 296.586 122.808 295.806 122.808C295.025 122.808 294.393 123.336 294.393 123.988C294.393 124.639 295.025 125.168 295.806 125.168Z" fill="#3F3D56"/>
<path d="M301.929 123.752C302.709 123.752 303.342 123.223 303.342 122.572C303.342 121.92 302.709 121.392 301.929 121.392C301.148 121.392 300.516 121.92 300.516 122.572C300.516 123.223 301.148 123.752 301.929 123.752Z" fill="#3F3D56"/>
<path d="M173.305 146.117C180.168 144.208 187.812 146.254 193.115 150.94C195.977 153.487 198.077 156.779 199.181 160.45C200.535 164.821 200.759 169.43 200.901 173.973C201.058 178.996 201.194 184.02 201.34 189.043C201.479 193.832 201.496 198.644 201.815 203.426C202.082 207.438 202.723 211.603 204.866 215.083C206.853 218.309 209.991 220.488 213.538 221.688C217.134 222.906 221.009 223.189 224.78 223.164C229.17 223.15 233.551 222.802 237.888 222.124C246.125 220.802 254.26 217.429 259.291 210.471C261.607 207.312 262.909 203.52 263.023 199.602C263.129 195.035 261.673 190.612 260.078 186.394C258.526 182.29 256.848 178.246 255.865 173.954C254.953 169.938 254.518 165.828 254.57 161.709C254.654 153.47 256.625 145.359 260.331 138.003C262.206 134.225 264.585 130.72 267.402 127.584C270.308 124.416 273.905 121.8 278.184 120.943C280.272 120.51 282.434 120.597 284.48 121.197C285.353 121.459 285.726 120.093 284.856 119.831C280.618 118.56 276.013 119.527 272.256 121.734C268.561 123.904 265.641 127.16 263.163 130.612C258.402 137.38 255.232 145.141 253.892 153.312C252.552 161.483 253.076 169.852 255.425 177.791C257.939 186.046 263.408 194.638 261.059 203.572C259.002 211.392 251.878 216.706 244.518 219.106C240.053 220.562 235.372 221.178 230.702 221.497C226.756 221.766 222.757 221.938 218.822 221.43C215.208 220.963 211.491 219.856 208.689 217.425C205.617 214.76 204.214 210.931 203.603 207.002C202.911 202.556 203.013 197.971 202.882 193.485L202.437 178.172C202.186 169.523 202.403 159.938 196.787 152.771C194.542 149.979 191.691 147.736 188.451 146.214C185.211 144.692 181.667 143.931 178.089 143.987C176.344 144.028 174.611 144.284 172.929 144.751C172.754 144.806 172.608 144.927 172.52 145.088C172.432 145.25 172.41 145.439 172.459 145.616C172.508 145.793 172.623 145.944 172.781 146.037C172.939 146.131 173.127 146.159 173.305 146.117Z" fill="#3F3D56"/>
<path d="M72.9924 137.159C73.9927 144.291 77.7775 150.733 83.5152 155.07C89.253 159.408 96.4743 161.285 103.592 160.29C110.711 159.294 117.144 155.508 121.478 149.763C125.812 144.018 127.692 136.783 126.706 129.649L126.653 129.264C125.506 122.226 121.644 115.922 115.9 111.712C110.157 107.502 102.992 105.723 95.9509 106.758C88.9102 107.794 82.5579 111.562 78.2645 117.249C73.971 122.936 72.0805 130.086 73.0007 137.158L72.9924 137.159Z" fill="#FFB6B6"/>
<path d="M96.8975 159.628C95.4954 156.798 94.0547 153.759 94.4356 150.623C94.8165 147.487 97.8746 144.48 100.89 145.401C102.694 145.952 104.061 147.731 105.945 147.815C108.536 147.932 110.012 144.956 110.81 142.482L114.062 132.409C120.332 137.345 112.391 132.17 120.159 130.363C123.206 129.654 126.282 128.281 128.063 125.703C129.843 123.125 129.819 119.136 127.359 117.199C126.153 116.25 124.55 115.893 123.397 114.879C122.681 114.25 122.187 113.408 121.987 112.475C121.787 111.543 121.891 110.571 122.285 109.703C122.679 108.835 123.342 108.117 124.174 107.656C125.007 107.194 125.966 107.014 126.909 107.141L118.635 106.133L121.084 101.658C119.314 103.067 116.843 103.264 114.616 102.87C112.39 102.476 110.291 101.565 108.112 100.96C97.6522 98.0554 85.524 103.207 80.3327 112.759C78.2951 112.085 76.1013 112.047 74.0418 112.65C71.9822 113.254 70.1543 114.47 68.8002 116.138C66.5955 118.961 66.006 122.721 65.9322 126.305C65.7948 133.372 67.3557 140.369 70.4834 146.704C71.4582 148.673 72.6104 150.605 74.2673 152.045C75.9242 153.485 94.6491 161.464 96.8101 161.087" fill="#2F2E41"/>
<path d="M292.508 140.98C292.512 142.205 292.355 143.425 292.042 144.61V144.614C292.037 144.638 292.028 144.661 292.023 144.685C291.072 148.192 288.801 150.656 286.149 150.656C283.512 150.656 281.251 148.211 280.285 144.732C280.219 144.492 280.163 144.251 280.111 144.001C280.045 143.722 279.993 143.434 279.951 143.137C279.913 142.901 279.885 142.66 279.861 142.415C279.828 142.075 279.805 141.735 279.8 141.381V141.376C279.791 141.244 279.791 141.112 279.791 140.98V140.862L279.795 140.857C279.796 140.259 279.835 139.661 279.913 139.068C279.946 138.818 279.984 138.577 280.031 138.337C280.087 138.044 280.149 137.756 280.224 137.473C280.285 137.223 280.356 136.982 280.431 136.741C280.535 136.42 280.648 136.109 280.775 135.811C280.855 135.618 280.94 135.429 281.025 135.245C282.183 132.857 284.049 131.304 286.149 131.304C289.056 131.304 291.505 134.273 292.263 138.322C292.273 138.384 292.287 138.445 292.291 138.507V138.511C292.437 139.326 292.509 140.152 292.508 140.98Z" fill="#E6E6E6"/>
<path d="M281.086 135.453C281.084 135.539 281.051 135.622 280.995 135.688C280.938 135.753 280.861 135.797 280.775 135.811C280.855 135.618 280.94 135.429 281.025 135.245C281.064 135.307 281.085 135.379 281.086 135.453Z" fill="#787B81"/>
<path d="M286.655 135.023H282.51C282.308 135.023 282.144 135.187 282.144 135.39C282.144 135.592 282.308 135.757 282.51 135.757H286.655C286.857 135.757 287.021 135.592 287.021 135.39C287.021 135.187 286.857 135.023 286.655 135.023Z" fill="#787B81"/>
<path d="M280.959 137.105C280.959 137.202 280.92 137.296 280.851 137.365C280.782 137.434 280.689 137.473 280.592 137.473H280.224C280.285 137.223 280.356 136.982 280.431 136.741H280.592C280.688 136.741 280.781 136.779 280.85 136.847C280.919 136.915 280.958 137.008 280.959 137.105Z" fill="#787B81"/>
<path d="M282.755 136.74H282.088C281.886 136.74 281.722 136.904 281.722 137.107C281.722 137.31 281.886 137.474 282.088 137.474H282.755C282.957 137.474 283.121 137.31 283.121 137.107C283.121 136.904 282.957 136.74 282.755 136.74Z" fill="#787B81"/>
<path d="M288.689 136.679H284.544C284.342 136.679 284.178 136.843 284.178 137.046C284.178 137.248 284.342 137.413 284.544 137.413H288.689C288.891 137.413 289.055 137.248 289.055 137.046C289.055 136.843 288.891 136.679 288.689 136.679Z" fill="#787B81"/>
<path d="M282.628 138.396H281.961C281.759 138.396 281.595 138.56 281.595 138.763C281.595 138.966 281.759 139.13 281.961 139.13H282.628C282.83 139.13 282.994 138.966 282.994 138.763C282.994 138.56 282.83 138.396 282.628 138.396Z" fill="#787B81"/>
<path d="M284.789 138.396H284.122C283.92 138.396 283.756 138.56 283.756 138.763C283.756 138.966 283.92 139.13 284.122 139.13H284.789C284.991 139.13 285.155 138.966 285.155 138.763C285.155 138.56 284.991 138.396 284.789 138.396Z" fill="#787B81"/>
<path d="M280.921 138.7C280.921 138.798 280.882 138.891 280.813 138.96C280.744 139.029 280.651 139.068 280.554 139.068H279.913C279.946 138.818 279.984 138.577 280.031 138.337H280.554C280.602 138.336 280.649 138.345 280.694 138.363C280.738 138.381 280.779 138.408 280.813 138.442C280.847 138.476 280.874 138.516 280.893 138.56C280.911 138.604 280.921 138.652 280.921 138.7Z" fill="#787B81"/>
<path d="M290.723 138.335H286.578C286.376 138.335 286.212 138.499 286.212 138.702C286.212 138.904 286.376 139.069 286.578 139.069H290.723C290.925 139.069 291.089 138.904 291.089 138.702C291.089 138.499 290.925 138.335 290.723 138.335Z" fill="#787B81"/>
<path d="M281.086 141.117C281.086 141.165 281.076 141.212 281.057 141.257C281.039 141.301 281.012 141.341 280.978 141.375C280.943 141.409 280.903 141.435 280.858 141.454C280.814 141.472 280.766 141.481 280.718 141.48H280.054C279.96 141.481 279.869 141.445 279.8 141.381V141.376C279.791 141.244 279.791 141.112 279.791 140.98V140.862L279.795 140.857C279.829 140.823 279.869 140.795 279.914 140.777C279.958 140.758 280.006 140.748 280.054 140.749H280.718C280.816 140.749 280.909 140.787 280.978 140.856C281.047 140.926 281.086 141.019 281.086 141.117Z" fill="#CCCCCC"/>
<path d="M286.655 140.687H282.51C282.308 140.687 282.144 140.851 282.144 141.054C282.144 141.256 282.308 141.421 282.51 141.421H286.655C286.857 141.421 287.021 141.256 287.021 141.054C287.021 140.851 286.857 140.687 286.655 140.687Z" fill="#CCCCCC"/>
<path d="M280.959 142.769C280.959 142.866 280.92 142.96 280.851 143.029C280.782 143.098 280.689 143.137 280.591 143.137H279.951C279.913 142.901 279.885 142.66 279.861 142.415C279.882 142.407 279.905 142.404 279.927 142.405H280.591C280.688 142.405 280.781 142.443 280.85 142.511C280.918 142.579 280.958 142.672 280.959 142.769Z" fill="#CCCCCC"/>
<path d="M282.755 142.404H282.088C281.886 142.404 281.722 142.568 281.722 142.771C281.722 142.974 281.886 143.138 282.088 143.138H282.755C282.957 143.138 283.121 142.974 283.121 142.771C283.121 142.568 282.957 142.404 282.755 142.404Z" fill="#CCCCCC"/>
<path d="M288.689 142.343H284.544C284.342 142.343 284.178 142.507 284.178 142.71C284.178 142.912 284.342 143.077 284.544 143.077H288.689C288.891 143.077 289.055 142.912 289.055 142.71C289.055 142.507 288.891 142.343 288.689 142.343Z" fill="#CCCCCC"/>
<path d="M282.628 144.06H281.961C281.759 144.06 281.595 144.224 281.595 144.427C281.595 144.63 281.759 144.794 281.961 144.794H282.628C282.83 144.794 282.994 144.63 282.994 144.427C282.994 144.224 282.83 144.06 282.628 144.06Z" fill="#CCCCCC"/>
<path d="M284.789 144.06H284.122C283.92 144.06 283.756 144.224 283.756 144.427C283.756 144.63 283.92 144.794 284.122 144.794H284.789C284.991 144.794 285.155 144.63 285.155 144.427C285.155 144.224 284.991 144.06 284.789 144.06Z" fill="#CCCCCC"/>
<path d="M280.921 144.364C280.921 144.462 280.883 144.555 280.814 144.624C280.745 144.693 280.651 144.732 280.554 144.732H280.286C280.22 144.492 280.163 144.251 280.111 144.001H280.554C280.602 144 280.65 144.009 280.694 144.027C280.739 144.045 280.779 144.072 280.813 144.106C280.847 144.14 280.875 144.18 280.893 144.224C280.912 144.268 280.921 144.316 280.921 144.364Z" fill="#CCCCCC"/>
<path d="M290.723 143.999H286.578C286.376 143.999 286.212 144.163 286.212 144.366C286.212 144.568 286.376 144.733 286.578 144.733H290.723C290.925 144.733 291.089 144.568 291.089 144.366C291.089 144.163 290.925 143.999 290.723 143.999Z" fill="#CCCCCC"/>
</g>
<defs>
<clipPath id="clip0_3996_6110">
<rect width="348" height="272" fill="white"/>
</clipPath>
</defs>
</svg>
